<?xml version="1.0" encoding="utf-8"?>
<!-- Generator: Adobe Illustrator 24.0.1, SVG Export Plug-In . SVG Version: 6.00 Build 0)  -->
<svg version="1.1" id="Calque_2" xmlns="http://www.w3.org/2000/svg" xmlns:xlink="http://www.w3.org/1999/xlink" x="0px" y="0px"
	 viewBox="0 0 302 199.2" style="enable-background:new 0 0 302 199.2;" xml:space="preserve">
<style type="text/css">
	.st0{fill:#AA8FBD;}
</style>
<path class="st0" d="M261.5,116.7c0.4-2.7,0.7-5.4,0.8-8.2c2.4,0.2,4.8,0.5,7.3,0.9c13.8,2.4,25.5,7.8,32.4,14.2
	c-5.2-8.8-19.4-16.8-37-19.8c-0.9-0.1-1.7-0.3-2.6-0.4c0-46.5,0-81.9,0-90.8c0-8.9-6.6-15.9-17.6-11.3s-27.7,11.6-32.6,14
	c-4.8,2.4-11.4,3-23.9-0.9c-11.1-3.3-23-5.1-35.3-5.1c-12.4,0-24.3,1.8-35.3,5.1c-12.5,3.8-19.1,3.3-23.9,0.9
	C88.9,13,72.2,6,61.1,1.4S43.5,3.9,43.5,12.8c0,8.8,0,44.1,0,90.3c-2.1,0.2-4.2,0.4-6.4,0.8C19.6,106.7,5.3,114.6,0,123.3
	c7-6.4,18.7-11.7,32.6-14c3.8-0.6,7.5-1,11.1-1.1c0.1,2.3,0.3,4.6,0.6,6.9c-15.9,6.1-27.7,16.1-31.2,25.3c5.7-7.6,16.2-15,29.4-19.8
	c0.9-0.3,1.7-0.6,2.6-0.9c8.6,45,53.6,79.3,108,79.3c53.8,0,98.6-33.7,107.7-78c12.7,4.8,22.8,12,28.4,19.3
	C285.9,132,275.6,122.9,261.5,116.7z M112.6,99.5c-8.4,0-15.2-8.4-15.2-18.9s6.8-18.9,15.2-18.9s15.2,8.4,15.2,18.9
	S121,99.5,112.6,99.5z M193.5,99.5c-8.4,0-15.2-8.4-15.2-18.9s6.8-18.9,15.2-18.9c8.4,0,15.2,8.4,15.2,18.9S202,99.5,193.5,99.5z"/>
</svg>
